<svg xmlns="http://www.w3.org/2000/svg" viewBox="0 0 560 440"><defs><radialGradient id="a"><stop stop-color="#db7557"/><stop offset=".75" stop-color="#9f3232"/><stop offset="1" stop-color="#782d2d"/></radialGradient><radialGradient id="b"><stop stop-color="#d7d781"/><stop offset="1" stop-color="#849747"/></radialGradient><filter id="s"><feDropShadow dy="13" stdDeviation="10" flood-opacity=".2"/></filter></defs><g filter="url(#s)"><path d="M97 257c4-92 78-143 147-106 66-37 145 13 145 104 0 92-79 160-146 160S93 348 97 257Z" fill="url(#a)"/><path d="M294 232c11-78 73-118 135-88 58-31 121 17 118 94-3 81-72 137-128 132-57-4-135-60-125-138Z" fill="url(#b)"/><path d="M245 169c-5-43 7-73 32-101" fill="none" stroke="#5f4931" stroke-width="13" stroke-linecap="round"/><path d="M278 91c52-25 88-4 107 23-44 6-74 3-107-23Z" fill="#4f763d"/><path d="M421 155c-4-34 6-55 20-74" fill="none" stroke="#5f4931" stroke-width="10" stroke-linecap="round"/><ellipse cx="160" cy="217" rx="22" ry="13" fill="#fff" opacity=".14"/><ellipse cx="355" cy="196" rx="18" ry="11" fill="#fff" opacity=".18"/></g></svg>
