<svg xmlns="http://www.w3.org/2000/svg" viewBox="0 0 560 440"><defs><linearGradient id="e" x2="1" y2="1"><stop stop-color="#755571"/><stop offset=".55" stop-color="#4e2d54"/><stop offset="1" stop-color="#261c35"/></linearGradient><filter id="s"><feDropShadow dy="14" stdDeviation="10" flood-opacity=".22"/></filter></defs><g filter="url(#s)"><path d="M163 146c-29 85-39 207 50 260 72 43 177 1 207-94 23-75-35-137-116-145-54-5-76-39-141-21Z" fill="url(#e)"/><path d="M294 171c-47-22-89-21-134-3l20-39-39-25 48-4 7-45 31 34 43-20-10 43 42 23Z" fill="#537343"/><path d="M228 91c5-37 20-61 45-79" fill="none" stroke="#4f633e" stroke-width="13" stroke-linecap="round"/><path d="M207 190c-32 42-34 101-8 139" fill="none" stroke="#fff" stroke-width="15" stroke-linecap="round" opacity=".1"/><ellipse cx="373" cy="306" rx="38" ry="22" fill="#fff" opacity=".07"/></g></svg>
